<?xml version="1.0" standalone="no"?>
<!DOCTYPE svg PUBLIC "-//W3C//DTD SVG 20010904//EN"
 "http://www.w3.org/TR/2001/REC-SVG-20010904/DTD/svg10.dtd">
<svg version="1.0" xmlns="http://www.w3.org/2000/svg"
 width="512.000000pt" height="512.000000pt" viewBox="0 0 512.000000 512.000000"
 preserveAspectRatio="xMidYMid meet">
<metadata>
Created by potrace 1.14, written by Peter Selinger 2001-2017
</metadata>
<g transform="translate(0.000000,512.000000) scale(0.100000,-0.100000)"
fill="#000000" stroke="none">
<path d="M2447 4763 c-3 -2 -42 -6 -88 -7 -91 -4 -144 -16 -229 -51 -84 -34
-94 -38 -105 -40 -6 -2 -42 -15 -80 -30 -95 -38 -172 -92 -258 -181 -39 -42
-97 -99 -127 -127 -196 -185 -245 -241 -292 -337 -40 -81 -78 -191 -93 -270
-2 -12 -6 -29 -9 -38 -3 -9 -8 -33 -11 -52 -3 -19 -10 -51 -15 -70 -9 -34 -14
-65 -30 -180 -17 -125 1 -275 59 -478 37 -129 60 -180 114 -250 24 -31 64 -89
89 -127 25 -39 78 -103 118 -142 l73 -72 2 -88 c2 -50 10 -110 20 -139 44
-134 146 -292 270 -419 35 -36 61 -66 57 -68 -22 -13 -109 -26 -198 -32 -128
-8 -133 -9 -172 -44 -114 -104 -153 -144 -206 -214 -61 -81 -163 -192 -176
-192 -19 0 -49 -55 -59 -108 -13 -69 -34 -113 -64 -128 -12 -7 -23 -12 -24
-11 -16 11 -33 -6 -43 -43 -7 -24 -18 -49 -25 -55 -8 -6 -24 -45 -37 -86 -13
-42 -31 -84 -40 -94 -9 -10 -14 -21 -11 -24 4 -3 1 -6 -5 -6 -7 0 -11 -4 -9
-8 1 -4 -14 -37 -33 -72 -19 -36 -36 -76 -37 -89 -1 -12 -8 -28 -16 -35 -8 -6
-27 -29 -43 -51 -16 -22 -37 -49 -46 -59 -10 -11 -18 -25 -18 -30 0 -8 570
-11 1912 -11 1904 0 1913 0 1919 20 3 11 2 31 -1 45 -4 14 -3 40 1 58 4 17 3
34 -1 37 -5 3 -6 14 -3 25 3 12 -2 29 -13 41 -10 11 -19 32 -20 47 -7 75 -16
106 -34 122 -11 10 -20 22 -20 29 0 6 -5 11 -11 11 -8 0 -40 60 -39 75 0 3
-11 28 -25 55 -14 27 -25 53 -24 56 0 4 -4 10 -9 13 -5 3 -25 38 -44 76 -19
39 -47 90 -60 115 -14 25 -38 68 -53 95 -15 28 -33 57 -40 65 -6 8 -17 29 -24
47 -7 17 -21 39 -32 49 -10 9 -19 21 -19 26 0 5 -6 15 -12 22 -7 8 -20 24 -28
36 -8 12 -21 28 -27 36 -7 7 -13 17 -13 23 0 6 -7 11 -15 11 -7 0 -18 6 -22
14 -13 24 -66 78 -147 151 -110 98 -130 115 -138 115 -4 0 -14 12 -22 28 -8
15 -15 24 -16 19 0 -4 -10 -1 -22 7 -13 8 -34 16 -48 18 -14 2 -31 7 -38 12
-7 4 -30 8 -50 8 -41 -1 -102 17 -102 30 0 4 -10 8 -23 8 -13 0 -27 4 -33 10
-5 5 -25 12 -44 14 -19 3 -36 5 -38 5 -5 1 52 76 61 79 4 2 7 9 7 15 0 7 12
25 26 40 19 21 33 27 48 23 11 -3 24 -6 28 -6 3 0 11 -14 17 -30 16 -46 36
-47 115 -5 39 21 113 59 164 86 121 63 194 114 223 158 13 20 26 38 29 41 9 8
60 130 54 130 -2 0 2 13 11 30 9 17 13 30 10 30 -3 0 11 26 32 58 88 136 110
202 118 345 3 49 7 101 9 115 28 167 27 302 0 436 -2 12 -7 39 -10 61 -16 109
-25 155 -37 185 -3 8 -10 29 -15 46 -6 17 -38 77 -71 133 -34 55 -72 121 -86
146 -14 25 -37 66 -51 92 -62 113 -119 174 -236 256 -38 26 -71 47 -74 47 -3
0 -11 6 -18 13 -8 6 -24 19 -36 27 -12 8 -54 40 -94 71 -107 85 -243 148 -356
165 -19 3 -75 17 -125 30 -183 52 -184 52 -325 59 -58 4 -113 8 -122 9 -9 2
-19 2 -21 -1z"/>
</g>
</svg>
